<svg xmlns="http://www.w3.org/2000/svg" viewBox="0 0 860 420" role="img" aria-label="Superior Drummer preview">
  <defs>
    <linearGradient id="bg" x1="0%" y1="0%" x2="100%" y2="100%">
      <stop offset="0%" stop-color="#4a148c"/>
      <stop offset="100%" stop-color="#7b1fa2"/>
    </linearGradient>
  </defs>
  <rect width="860" height="420" rx="18" fill="url(#bg)"/>
  <rect x="620" y="140" width="12" height="40" rx="3" fill="#f3e5f5" opacity="0.25"/><rect x="638" y="110" width="12" height="70" rx="3" fill="#f3e5f5" opacity="0.25"/><rect x="656" y="125" width="12" height="55" rx="3" fill="#f3e5f5" opacity="0.25"/><rect x="674" y="90" width="12" height="90" rx="3" fill="#f3e5f5" opacity="0.25"/><rect x="692" y="115" width="12" height="65" rx="3" fill="#f3e5f5" opacity="0.25"/><rect x="710" y="70" width="12" height="110" rx="3" fill="#f3e5f5" opacity="0.25"/><rect x="728" y="100" width="12" height="80" rx="3" fill="#f3e5f5" opacity="0.25"/>
  <rect x="36" y="36" width="420" height="6" rx="3" fill="#f3e5f5" opacity="0.35"/>
  <text x="48" y="120" fill="#ffffff" font-family="Segoe UI, Arial, sans-serif" font-size="42" font-weight="700">Superior Drummer</text>
  <text x="48" y="168" fill="#ffffff" font-family="Segoe UI, Arial, sans-serif" font-size="20" opacity="0.85">Acoustic drum instrument</text>
  <rect x="48" y="200" width="260" height="4" rx="2" fill="#f3e5f5" opacity="0.3"/>
  <rect x="48" y="220" width="200" height="4" rx="2" fill="#f3e5f5" opacity="0.2"/>
  <rect x="48" y="240" width="320" height="4" rx="2" fill="#f3e5f5" opacity="0.15"/>
</svg>
